<?xml version="1.0" encoding="UTF-8" standalone="no"?>
<svg
   version="1.0"
   width="1138.2405"
   height="959.44177"
   viewBox="0 0 853.68036 719.58133"
   preserveAspectRatio="xMidYMid"
   id="svg18"
   sodipodi:docname="Logo gross.svg"
   inkscape:version="1.2.2 (732a01da63, 2022-12-09)"
   inkscape:export-filename="Logo gross.png"
   inkscape:export-xdpi="96"
   inkscape:export-ydpi="96"
   xmlns:inkscape="http://www.inkscape.org/namespaces/inkscape"
   xmlns:sodipodi="http://sodipodi.sourceforge.net/DTD/sodipodi-0.dtd"
   xmlns="http://www.w3.org/2000/svg"
   xmlns:svg="http://www.w3.org/2000/svg">
  <defs
     id="defs22" />
  <sodipodi:namedview
     id="namedview20"
     pagecolor="#ffffff"
     bordercolor="#000000"
     borderopacity="0.25"
     inkscape:showpageshadow="2"
     inkscape:pageopacity="0.0"
     inkscape:pagecheckerboard="true"
     inkscape:deskcolor="#d1d1d1"
     inkscape:document-units="pt"
     showgrid="false"
     inkscape:zoom="0.63214285"
     inkscape:cx="516.49718"
     inkscape:cy="677.06215"
     inkscape:window-width="2400"
     inkscape:window-height="1566"
     inkscape:window-x="-11"
     inkscape:window-y="-11"
     inkscape:window-maximized="1"
     inkscape:current-layer="svg18" />
  <g
     transform="matrix(0.1,0,0,-0.1,109.70017,482)"
     fill="#000000"
     stroke="none"
     id="g16"
     style="fill:#78aa8c;fill-opacity:1">
    <path
       d="m 1170,4275 v -545 h 620 620 v 545 545 h -620 -620 z"
       id="path2"
       style="fill:#78aa8c;fill-opacity:1" />
    <path
       d="m 2570,3915 v -905 h 590 590 v 905 905 h -590 -590 z"
       id="path4"
       style="fill:#78aa8c;fill-opacity:1" />
    <path
       d="M 3910,3238 V 1655 l 620,3 620,2 v 1580 1580 h -620 -620 z"
       id="path6"
       style="fill:#78aa8c;fill-opacity:1" />
    <path
       d="m 1170,2955 v -615 h 620 620 v 615 615 h -620 -620 z"
       id="path8"
       style="fill:#78aa8c;fill-opacity:1" />
    <path
       d="m 2740,2260 v -420 l 183,-2 182,-3 v -165 -165 l -267,-3 -268,-2 -2,-560 -3,-560 h 903 902 v 560 560 h -575 -575 v 170 170 h 180 180 v 420 420 h -420 -420 z m 370,227 c 0,-46 -2,-86 -5,-89 -4,-4 -175,161 -175,169 0,2 41,3 90,3 h 90 z m 350,75 c 0,-8 -232,-242 -240,-242 -4,0 -5,220 -1,243 1,9 241,9 241,-1 z m -357,-420 c 4,-52 4,-98 2,-101 -3,-3 -62,51 -130,119 l -125,125 v 100 100 l 124,-124 123,-123 z m 367,38 v -230 h -125 -125 v 101 101 l 122,129 c 66,71 123,129 125,129 1,0 3,-103 3,-230 z m -530,-145 85,-85 h -88 -87 v 85 c 0,47 1,85 3,85 1,0 40,-38 87,-85 z"
       id="path10"
       style="fill:#78aa8c;fill-opacity:1" />
    <path
       d="M 1170,1280 V 380 h 620 620 v 900 900 h -620 -620 z"
       id="path12"
       style="fill:#78aa8c;fill-opacity:1" />
    <path
       d="M 4530,940 V 380 h 310 310 v 560 560 h -310 -310 z"
       id="path14"
       style="fill:#78aa8c;fill-opacity:1" />
  </g>
  <text
     xml:space="preserve"
     style="font-style:normal;font-variant:normal;font-weight:600;font-stretch:normal;font-size:120px;font-family:'Lexend Exa';-inkscape-font-specification:'Lexend Exa, Semi-Bold';font-variant-ligatures:normal;font-variant-caps:normal;font-variant-numeric:normal;font-variant-east-asian:normal;text-align:center;text-anchor:middle;fill:#464b50;fill-opacity:1;stroke-width:0.75;stroke-opacity:0.5"
     x="423.78018"
     y="593.17798"
     id="text359"><tspan
       sodipodi:role="line"
       id="tspan301"
       x="423.78018"
       y="593.17798">GREENCITY</tspan></text>
  <text
     xml:space="preserve"
     style="font-style:normal;font-variant:normal;font-weight:600;font-stretch:normal;font-size:120px;font-family:'Lexend Exa';-inkscape-font-specification:'Lexend Exa, Semi-Bold';font-variant-ligatures:normal;font-variant-caps:normal;font-variant-numeric:normal;font-variant-east-asian:normal;text-align:center;text-anchor:middle;fill:#464b50;fill-opacity:1;stroke-width:0.75;stroke-opacity:0.5"
     x="425.10013"
     y="718.38135"
     id="text1794"><tspan
       sodipodi:role="line"
       id="tspan303"
       x="425.10013"
       y="718.38135">OASIS</tspan></text>
</svg>
